<svg xmlns="http://www.w3.org/2000/svg" xmlns:xlink="http://www.w3.org/1999/xlink" viewBox="0 0 16 16"><defs><style>.cls-1{fill:url(#Degradado_sin_nombre_47);}.cls-2{fill:#091317;}.cls-3{fill:#0d2a35;}.cls-10,.cls-11,.cls-12,.cls-13,.cls-14,.cls-15,.cls-16,.cls-17,.cls-18,.cls-19,.cls-20,.cls-21,.cls-22,.cls-23,.cls-24,.cls-25,.cls-26,.cls-27,.cls-28,.cls-29,.cls-3,.cls-30,.cls-31,.cls-32,.cls-33,.cls-34,.cls-35,.cls-36,.cls-37,.cls-38,.cls-39,.cls-4,.cls-40,.cls-41,.cls-42,.cls-43,.cls-5,.cls-6,.cls-7,.cls-8,.cls-9{stroke:#091317;stroke-miterlimit:10;stroke-width:0.01px;}.cls-4{fill:#33a6f4;}.cls-5{fill:#181e23;}.cls-6{fill:#0e191e;}.cls-7{fill:#4ac7ff;}.cls-8{fill:#60dcff;}.cls-9{fill:#6fecfe;}.cls-10{fill:#82f0fc;}.cls-11{fill:#222a2c;}.cls-12{fill:#7ff8ff;}.cls-13{fill:#51a6bc;}.cls-14{fill:#91fffd;}.cls-15{fill:#3d4549;}.cls-16{fill:#a6fffd;}.cls-17{fill:#090f13;}.cls-18{fill:#101519;}.cls-19{fill:#141a1c;}.cls-20{fill:#152220;}.cls-21{fill:#192328;}.cls-22{fill:#242931;}.cls-23{fill:#242a30;}.cls-24{fill:#54a4da;}.cls-25{fill:#4abdf9;}.cls-26{fill:#476478;}.cls-27{fill:#4091c4;}.cls-28{fill:#52d2ff;}.cls-29{fill:#2f9fe6;}.cls-30{fill:#2aa4f3;}.cls-31{fill:#0e3d61;}.cls-32{fill:#143952;}.cls-33{fill:#233745;}.cls-34{fill:#283339;}.cls-35{fill:#34393f;}.cls-36{fill:#323c41;}.cls-37{fill:#36424a;}.cls-38{fill:#99f9fe;}.cls-39{fill:#a5ffff;}.cls-40{fill:#3c4344;}.cls-41{fill:#81939e;}.cls-42{fill:#8899a0;}.cls-43{fill:#1163ab;}</style><linearGradient id="Degradado_sin_nombre_47" x1="8" y1="16" x2="8" gradientUnits="userSpaceOnUse"><stop offset="0.3" stop-color="#091317"/><stop offset="0.49" stop-color="#0c161a"/><stop offset="0.63" stop-color="#151f23"/><stop offset="0.74" stop-color="#242e33"/><stop offset="0.85" stop-color="#39434a"/><stop offset="0.9" stop-color="#444e55"/></linearGradient></defs><title>112Mesa de trabajo 2</title><g id="favicon"><circle class="cls-1" cx="8" cy="8" r="8"/><circle class="cls-2" cx="8" cy="8.41" r="7.59"/><rect class="cls-3" x="6.4" y="11.2" width="1.6" height="1.6"/><rect class="cls-4" x="8" y="11.2" width="1.6" height="1.6"/><rect class="cls-5" x="9.6" y="11.2" width="1.6" height="1.6"/><rect class="cls-6" x="8" y="12.8" width="1.6" height="1.6"/><rect class="cls-7" x="8" y="9.6" width="1.6" height="1.6"/><rect class="cls-8" x="9.6" y="9.6" width="1.6" height="1.6"/><rect class="cls-9" x="11.2" y="9.6" width="1.6" height="1.6"/><rect class="cls-10" x="11.2" y="8" width="1.6" height="1.6"/><rect class="cls-11" x="12.8" y="8" width="1.6" height="1.6"/><rect class="cls-12" x="11.2" y="6.4" width="1.6" height="1.6"/><rect class="cls-13" x="12.8" y="6.4" width="1.6" height="1.6"/><rect class="cls-14" x="11.2" y="4.8" width="1.6" height="1.6"/><rect class="cls-15" x="12.8" y="4.8" width="1.6" height="1.6"/><rect class="cls-16" x="11.2" y="3.2" width="1.6" height="1.6"/><rect class="cls-17" x="6.4" y="9.6" width="1.6" height="1.6"/><rect class="cls-18" x="6.4" y="8" width="1.6" height="1.6"/><rect class="cls-19" x="8" y="8" width="1.6" height="1.6"/><rect class="cls-20" x="9.6" y="8" width="1.6" height="1.6"/><rect class="cls-21" x="9.6" y="6.4" width="1.6" height="1.6"/><rect class="cls-22" x="9.6" y="4.8" width="1.6" height="1.6"/><rect class="cls-23" x="8" y="4.8" width="1.6" height="1.6"/><rect class="cls-24" x="8" y="6.4" width="1.6" height="1.6"/><rect class="cls-25" x="6.4" y="6.4" width="1.6" height="1.6"/><rect class="cls-9" x="1.6" y="6.4" width="1.6" height="1.6"/><rect class="cls-4" x="1.6" y="8" width="1.6" height="1.6"/><rect class="cls-26" x="6.4" y="4.8" width="1.6" height="1.6"/><rect class="cls-27" x="4.8" y="4.8" width="1.6" height="1.6"/><rect class="cls-28" x="4.8" y="6.4" width="1.6" height="1.6"/><rect class="cls-29" x="4.8" y="8" width="1.6" height="1.6"/><rect class="cls-30" x="4.8" y="9.6" width="1.6" height="1.6"/><rect class="cls-31" x="3.2" y="9.6" width="1.6" height="1.6"/><rect class="cls-32" x="3.2" y="8" width="1.6" height="1.6"/><rect class="cls-33" x="3.2" y="6.4" width="1.6" height="1.6"/><rect class="cls-34" x="3.2" y="4.8" width="1.6" height="1.6"/><rect class="cls-35" x="3.2" y="3.2" width="1.6" height="1.6"/><rect class="cls-36" x="4.8" y="3.2" width="1.6" height="1.6"/><rect class="cls-37" x="6.4" y="3.2" width="1.6" height="1.6"/><rect class="cls-38" x="8" y="3.2" width="1.6" height="1.6"/><rect class="cls-39" x="9.6" y="3.2" width="1.6" height="1.6"/><rect class="cls-40" x="9.6" y="1.6" width="1.6" height="1.6"/><rect class="cls-41" x="8" y="1.6" width="1.6" height="1.6"/><rect class="cls-42" x="6.4" y="1.6" width="1.6" height="1.6"/><rect class="cls-43" x="4.8" y="11.2" width="1.6" height="1.6"/></g></svg>